<svg id="chicken" xmlns="http://www.w3.org/2000/svg" viewBox="0 0 236.73 181.18"><defs><style>.cls-1,.cls-2{fill:#5f5357;}.cls-1,.cls-2,.cls-3,.cls-4{stroke:#5f5357;stroke-miterlimit:10;}.cls-1{stroke-width:10px;}.cls-2{stroke-linecap:round;}.cls-2,.cls-4{stroke-width:12px;}.cls-3{stroke-width:5px;stroke:#f6e3bb;fill:#f6e3bb;}.cls-4{stroke:#f6e3bb;fill:#f6e3bb;}</style></defs><path class="cls-1" d="M131.34,117.72" transform="translate(-32.13 -59.88)"/><path class="cls-2" d="M263.84,228.75C261,178.08,228.35,135.89,184.2,121.4a.22.22,0,0,1-.08-.37c6.61-5.91,9.66-15.72,5.52-25.83-.62-1.49-3.72-8.24-11-11a20.24,20.24,0,0,0-9.77-1,24.65,24.65,0,0,0-7.63,2.11,23.42,23.42,0,0,0-3.09-9.15,23.84,23.84,0,0,0-8.37-8.23c-8.71-5-17.91-2.44-19.71-1.89-2.78,1.18-9.72,4.61-13,12a28.34,28.34,0,0,0-2.11,10,34.22,34.22,0,0,0,.88,10.52,33.49,33.49,0,0,0,5.82,11.87c2.83,3.54,7.37,7.54,7.05,7.89-.12.15-1.36.06-1.52.21a.07.07,0,0,1,0,0,.68.68,0,0,1-.3.15h0c-49.16,11-86.57,55.66-89.66,110.09a6.75,6.75,0,0,0,6.5,7.32h213.7A6.74,6.74,0,0,0,263.84,228.75Z" transform="translate(-32.13 -59.88)"/><path class="cls-2" d="M153.23,116.71a24.38,24.38,0,0,1-2.68-13.08c.89-11,9.29-17.32,10.67-18.32" transform="translate(-32.13 -59.88)"/><circle class="cls-3" cx="65.79" cy="114.48" r="22.21"/><path class="cls-4" d="M149.32,220.94l-12.69-15.16a2.27,2.27,0,0,1,0-2.81l12.69-15.15a1.47,1.47,0,0,1,2.35,0L164.35,203a2.27,2.27,0,0,1,0,2.81l-12.68,15.16A1.48,1.48,0,0,1,149.32,220.94Z" transform="translate(-32.13 -59.88)"/><circle class="cls-3" cx="170.93" cy="114.48" r="22.21"/></svg>