<svg id="chicken" xmlns="http://www.w3.org/2000/svg" viewBox="0 0 236.73 181.18"><defs><style>.cls-1,.cls-2{fill:#fbd84e;}.cls-1,.cls-2,.cls-4,.cls-5{stroke:#5f5358;stroke-miterlimit:10;}.cls-1{stroke-width:8px;}.cls-2{stroke-linecap:round;}.cls-2,.cls-5{stroke-width:12px;}.cls-3{fill:#ed1c24;opacity:0.1;}.cls-4{fill:#5f5358;stroke-width:6px;}.cls-5{fill:#f6bb16;}</style></defs><path class="cls-1" d="M130.85,117.43" transform="translate(-31.64 -59.6)"/><path class="cls-2" d="M263.35,228.47c-2.88-50.68-35.49-92.87-79.64-107.36a.21.21,0,0,1-.08-.36c6.61-5.92,9.66-15.73,5.51-25.83-.61-1.5-3.71-8.25-11-11a20.23,20.23,0,0,0-9.76-1A24.65,24.65,0,0,0,160.73,85a23.42,23.42,0,0,0-3.09-9.15,24,24,0,0,0-8.37-8.23c-8.71-5-17.91-2.43-19.72-1.88-2.77,1.18-9.71,4.6-13,12a28.34,28.34,0,0,0-2.11,10,34.15,34.15,0,0,0,.87,10.53,33.54,33.54,0,0,0,5.83,11.86c2.83,3.54,7.36,7.54,7,7.9-.12.14-1.36,0-1.52.21l0,0a.64.64,0,0,1-.3.16h0c-49.16,11-86.57,55.66-89.66,110.1a6.73,6.73,0,0,0,6.5,7.31h213.7A6.73,6.73,0,0,0,263.35,228.47Z" transform="translate(-31.64 -59.6)"/><path class="cls-2" d="M152.73,116.42a24.55,24.55,0,0,1-2.68-13.08c.9-11,9.29-17.31,10.68-18.32" transform="translate(-31.64 -59.6)"/><circle class="cls-3" cx="43.58" cy="146.49" r="23.48"/><circle class="cls-3" cx="193.15" cy="146.49" r="23.48"/><circle class="cls-4" cx="65.79" cy="114.48" r="22.21"/><path class="cls-5" d="M148.82,220.65,136.14,205.5a2.28,2.28,0,0,1,0-2.82l12.68-15.15a1.49,1.49,0,0,1,2.36,0l12.68,15.15a2.28,2.28,0,0,1,0,2.82l-12.68,15.15A1.48,1.48,0,0,1,148.82,220.65Z" transform="translate(-31.64 -59.6)"/><circle class="cls-4" cx="170.93" cy="114.48" r="22.21"/></svg>